<svg xmlns="http://www.w3.org/2000/svg" version="1.1" xmlns:xlink="http://www.w3.org/1999/xlink" xmlns:svgjs="http://svgjs.dev/svgjs" width="2400" height="1080" preserveAspectRatio="none" viewBox="0 0 2400 1080"><g mask="url(&quot;#SvgjsMask1062&quot;)" fill="none"><rect width="2400" height="1080" x="0" y="0" fill="rgba(229, 133, 5, 1)"></rect><path d="M0,600.94C119.525,577.625,249.069,612.553,354.524,551.65C462.083,489.532,529.82,378.507,581.063,265.362C632.187,152.48,647.049,30.971,646.458,-92.947C645.787,-233.523,660.804,-387.158,577.408,-500.327C492.477,-615.579,346.253,-680.474,203.706,-693.76C71.192,-706.111,-38.771,-604.31,-167.289,-569.735C-299.971,-534.04,-452.818,-570.075,-562.695,-487.578C-680.438,-399.174,-765.407,-258.513,-777.266,-111.754C-788.923,32.5,-677.853,150.711,-625.166,285.504C-568.599,430.224,-594.874,639.788,-456.15,709.783C-313.705,781.655,-156.599,631.487,0,600.94" fill="#a35e04"></path><path d="M2400 2107.465C2614.138 2158.65 2870.6639999999998 2218.54 3046.79 2086.424 3223.8630000000003 1953.597 3173.189 1675.8980000000001 3251.39 1468.817 3322.691 1280.006 3508.3 1124.452 3485.804 923.885 3463.2290000000003 722.617 3284.456 580.0640000000001 3136.226 442.05600000000004 3000.8 315.96900000000005 2850.334 200.85699999999997 2669.107 163.50599999999997 2495.341 127.69299999999998 2326.849 203.11400000000003 2153.192 239.45100000000002 1962.646 279.322 1745.409 257.26 1600.388 387.13199999999995 1451.021 520.896 1421.147 737.204 1378.585 933.143 1333.128 1142.41 1232.702 1379.502 1345.25 1561.688 1458.6979999999999 1745.3319999999999 1733.746 1719.1950000000002 1925.461 1818.397 2093.361 1905.2759999999998 2216.134 2063.516 2400 2107.465" fill="#fba533"></path></g><defs><mask id="SvgjsMask1062"><rect width="2400" height="1080" fill="#ffffff"></rect></mask></defs></svg>