<svg xmlns="http://www.w3.org/2000/svg" version="1.1" xmlns:xlink="http://www.w3.org/1999/xlink" xmlns:svgjs="http://svgjs.dev/svgjs" width="1920" height="2400" preserveAspectRatio="none" viewBox="0 0 1920 2400"><g mask="url(&quot;#SvgjsMask1443&quot;)" fill="none"><rect width="1920" height="2400" x="0" y="0" fill="rgba(229, 133, 5, 1)"></rect><path d="M938.815,682.621C1088.047,685.574,1259.941,692.48,1340.175,566.618C1424.133,434.915,1367.011,268.022,1289.581,132.378C1211.304,-4.75,1096.632,-131.468,938.815,-136.494C773.79,-141.749,626.098,-36.248,547.097,108.734C471.395,247.663,474.861,420.584,564.057,551.26C644.041,668.44,796.968,679.814,938.815,682.621" fill="rgba(147, 83, 0, 0.36)" class="triangle-float2"></path><path d="M1384.507,2865.975C1580.795,2873.074,1734.291,2714.989,1829.584,2543.238C1921.61,2377.375,1945.814,2181.047,1857.731,2013.057C1763.08,1832.54,1587.821,1679.958,1384.507,1694.392C1195.983,1707.776,1096.655,1902.481,1014.92,2072.892C946.837,2214.84,925.402,2370.248,991.901,2512.945C1071.579,2683.922,1195.999,2859.158,1384.507,2865.975" fill="rgba(147, 83, 0, 0.36)" class="triangle-float2"></path><path d="M701.795,1952.566C809.522,1954.059,926.5,1947.357,988.567,1859.295C1059.326,1758.9,1078.183,1617.889,1009.393,1516.135C945.745,1421.987,815.439,1435.29,701.795,1435.101C587.63,1434.911,455.064,1419.666,392.42,1515.109C326.091,1616.166,358.674,1752.837,428.471,1851.53C488.583,1936.529,597.698,1951.123,701.795,1952.566" fill="rgba(147, 83, 0, 0.36)" class="triangle-float1"></path><path d="M269.78,2408.979C343.912,2408.207,420.728,2387.452,459.099,2324.018C498.621,2258.681,488.293,2176.728,450.352,2110.461C412.147,2043.733,346.66,1994.671,269.78,1993.355C190.727,1992.001,118.167,2035.886,78.17,2104.088C37.687,2173.118,30.928,2260.276,73.509,2328.032C113.869,2392.253,193.934,2409.769,269.78,2408.979" fill="rgba(147, 83, 0, 0.36)" class="triangle-float1"></path><path d="M38.851,575.402C133.605,572.77,216.297,522.991,269.753,444.711C332.684,352.555,387.866,238.621,336.471,139.568C282.361,35.283,156.294,-3.515,38.851,-0.305C-72.628,2.742,-177.783,57.572,-231.865,155.102C-284.453,249.938,-274.11,367.018,-215.39,458.185C-161.23,542.272,-61.13,578.179,38.851,575.402" fill="rgba(147, 83, 0, 0.36)" class="triangle-float1"></path><path d="M1178.743,1736.226C1277.063,1736.732,1383.696,1723.293,1436.774,1640.53C1493.279,1552.424,1483.287,1436.52,1427.921,1347.693C1375.561,1263.69,1277.601,1221.554,1178.743,1226.558C1088.115,1231.145,1017.34,1293.631,969.735,1370.885C919.001,1453.217,877.25,1553.955,925.272,1637.897C973.504,1722.206,1081.613,1735.726,1178.743,1736.226" fill="rgba(147, 83, 0, 0.36)" class="triangle-float1"></path></g><defs><mask id="SvgjsMask1443"><rect width="1920" height="2400" fill="#ffffff"></rect></mask><style>
                @keyframes float1 {
                    0%{transform: translate(0, 0)}
                    50%{transform: translate(-10px, 0)}
                    100%{transform: translate(0, 0)}
                }

                .triangle-float1 {
                    animation: float1 5s infinite;
                }

                @keyframes float2 {
                    0%{transform: translate(0, 0)}
                    50%{transform: translate(-5px, -5px)}
                    100%{transform: translate(0, 0)}
                }

                .triangle-float2 {
                    animation: float2 4s infinite;
                }

                @keyframes float3 {
                    0%{transform: translate(0, 0)}
                    50%{transform: translate(0, -10px)}
                    100%{transform: translate(0, 0)}
                }

                .triangle-float3 {
                    animation: float3 6s infinite;
                }
            </style></defs></svg>